# AST/ASF file generated using VICON BodyLanguage
# -----------------------------------------------
:version 1.10
:name VICON
:units
  mass 1.0
  length 0.45
  angle deg
:documentation
   .ast/.asf automatically generated from VICON data using
   VICON BodyBuilder and BodyLanguage model FoxedUp or BRILLIANT.MOD
:root
   order TX TY TZ RX RY RZ
   axis XYZ
   position 0 0 0  
   orientation 0 0 0 
:bonedata
  begin
     id 1 
     name lhipjoint
     direction 0.578396 -0.714046 0.394458 
     length 2.21935 
     axis 0 0 0  XYZ
  end
  begin
     id 2 
     name lfemur
     direction 0.34202 -0.939693 0  
     length 6.39105  
     axis 0 0 20  XYZ
    dof rx ry rz
    limits (-160.0 20.0)
           (-70.0 70.0)
           (-60.0 70.0)
  end
  begin
     id 3 
     name ltibia
     direction 0.34202 -0.939693 0   
     length 6.99037   
     axis 0 0 20   XYZ
    dof rx
    limits (-10.0 170.0)
  end
  begin
     id 4 
     name lfoot
     direction 0.0582372 -0.160005 0.985397   
     length 2.06111   
     axis -90 7.62852e-016 20   XYZ
    dof rx rz
    limits (-45.0 90.0)
           (-70.0 20.0)
  end
  begin
     id 5 
     name ltoes
     direction 1.53556e-011 -4.21875e-011 1   
     length 1.04074   
     axis -90 7.62852e-016 20   XYZ
    dof rx
    limits (-90.0 20.0)
  end
  begin
     id 6 
     name rhipjoint
     direction -0.558179 -0.726269 0.40121   
     length 2.182  
     axis 0 0 0  XYZ 
  end
  begin
     id 7 
     name rfemur
     direction -0.34202 -0.939693 0   
     length 6.51172   
     axis 0 0 -20   XYZ
    dof rx ry rz
    limits (-160.0 20.0)
           (-70.0 70.0)
           (-70.0 60.0)
  end
  begin
     id 8 
     name rtibia
     direction -0.34202 -0.939693 0   
     length 7.02607   
     axis 0 0 -20   XYZ
    dof rx
    limits (-10.0 170.0)
 end
 begin
     id 9 
     name rfoot
     direction -0.0788856 -0.216737 0.973038   
     length 1.96734  
     axis -90 -7.62852e-016 -20   XYZ
    dof rx rz
    limits (-45.0 90.0)
           (-20.0 70.0)
  end
  begin
     id 10 
     name rtoes
     direction -1.53567e-011 -4.21783e-011 1   
     length 0.990825   
     axis -90 -7.62852e-016 -20   XYZ
    dof rx
    limits (-90.0 20.0)
  end
  begin
     id 11 
     name lowerback
     direction 0.00668177 0.999323 -0.0361741   
     length 1.7655   
     axis 0 0 0   XYZ
    dof rx ry rz
    limits (-20.0 45.0)
           (-30.0 30.0)
           (-30.0 30.0)
  end
  begin
     id 12 
     name upperback
     direction -0.00222086 0.99851 0.0545167   
     length 1.74912   
     axis 0 0 0   XYZ
    dof rx ry rz
    limits (-20.0 45.0)
           (-30.0 30.0)
           (-30.0 30.0)
  end
  begin
     id 13 
     name thorax
     direction -0.00733971 0.997496 0.0703443   
     length 1.75715   
     axis 0 0 0   XYZ
    dof rx ry rz
    limits (-20.0 45.0)
           (-30.0 30.0)
           (-30.0 30.0)
  end
  begin
     id 14 
     name lowerneck
     direction 0.0279797 0.994795 0.0979765   
     length 1.46939   
     axis 0 0 0   XYZ
    dof rx ry rz
    limits (-20.0 45.0)
           (-30.0 30.0)
           (-30.0 30.0)
  end
  begin
     id 15 
     name upperneck
     direction 0.00339187 0.976776 -0.214238   
     length 1.48018   
     axis 0 0 0   XYZ
    dof rx ry rz
    limits (-20.0 45.0)
           (-30.0 30.0)
           (-30.0 30.0)
  end
  begin
     id 16
     name head
     direction -0.00263506 0.996603 -0.0823096  
     length 1.4976  
     axis 0 0 0   XYZ
    dof rx ry rz
    limits (-20.0 45.0)
           (-30.0 30.0)
           (-30.0 30.0)
  end
  begin
     id 17 
     name lclavicle
     direction 0.894044 0.44508 -0.0508781  
     length 3.03024  
     axis 0 0 0   XYZ
    dof ry rz
    limits (-20.0 10.0)
           (0.0 20.0)
  end
  begin
     id 18 
     name lhumerus
     direction 1 -4.48961e-011 -2.39475e-018   
     length 4.4661   
     axis 180 -30 -90   XYZ
    dof rx ry rz
    limits (-60.0 90.0)
           (-90.0 90.0)
           (-90.0 90.0)
  end
  begin
     id 19
     name lradius
     direction 1 -4.48961e-011 9.29328e-028   
     length 3.41414   
     axis 180 -30 -90   XYZ
    dof rx
    limits (-10.0 170.0)
  end
  begin
     id 20
     name lwrist
     direction 1 -4.48985e-011 1.53461e-026   
     length 1.70707   
     axis -1.09697e-014 90 90   XYZ
    dof ry
    limits (-180.0 0.0)
 end
  begin
     id 21 
     name lhand
     direction 1 -4.48966e-011 3.06923e-026   
     length 0.328298   
     axis -1.95843e-014 90 90   XYZ
    dof rx rz
    limits (-90.0 90.0)
           (-45.0 45.0)
  end
  begin
     id 22 
     name lfingers
     direction 1 -4.48893e-011 6.13845e-026   
     length 0.264682   
     axis -3.91686e-014 90 90   XYZ
    dof rx
    limits (0.0 90.0)
  end
  begin
     id 23
     name lthumb
     direction 0.707107 -6.34876e-011 0.707107   
     length 0.380032   
     axis -90 45 2.85299e-015   XYZ
    dof rx rz
    limits (-45.0 45.0)
           (-45.0 45.0)
  end
  begin
     id 24 
     name rclavicle
     direction -0.936955 0.347862 -0.0332887   
     length 3.26927  
     axis 0 0 0   XYZ 
    dof ry rz
    limits (-10.0 20.0)
           (-20.0 0.0)
  end
  begin
     id 25 
     name rhumerus
     direction -1 -4.4896e-011 1.78637e-018  
     length 4.40431   
     axis 180 30 90   XYZ
    dof rx ry rz
    limits (-90.0 60.0)
           (-90.0 90.0)
           (-90.0 90.0)
  end
  begin
     id 26 
     name rradius
     direction -1 -4.48955e-011 9.34036e-027   
     length 3.04688   
     axis 180 30 90   XYZ
    dof rx
    limits (-10.0 170.0)
  end
  begin
     id 27 
     name rwrist
     direction -1 -4.49011e-011 1.53461e-026   
     length 1.52344   
     axis -1.09697e-014 -90 -90   XYZ
    dof ry
    limits (-180.0 0.0)
  end
  begin
     id 28
     name rhand
     direction -1 -4.48834e-011 3.06923e-026   
     length 0.500489   
     axis -1.95843e-014 -90 -90   XYZ
    dof rx rz
    limits (-90.0 90.0)
           (-45.0 45.0)
  end
  begin
     id 29
     name rfingers
     direction -1 -4.48967e-011 6.13845e-026   
     length 0.403507   
     axis -3.91686e-014 -90 -90   XYZ
    dof rx
    limits (0.0 90.0)
  end
  begin
     id 30
     name rthumb
     direction -0.707107 -6.34826e-011 0.707107   
     length 0.579358   
     axis -90 -45 -2.85299e-015   XYZ
    dof rx rz
    limits (-45.0 45.0)
           (-45.0 45.0)
  end
:hierarchy
  begin
    root lhipjoint rhipjoint lowerback
    lhipjoint lfemur
    lfemur ltibia
    ltibia lfoot
    lfoot ltoes
    rhipjoint rfemur
    rfemur rtibia
    rtibia rfoot
    rfoot rtoes
    lowerback upperback
    upperback thorax
    thorax lowerneck lclavicle rclavicle
    lowerneck upperneck
    upperneck head
    lclavicle lhumerus
    lhumerus lradius
    lradius lwrist
    lwrist lhand lthumb
    lhand lfingers
    rclavicle rhumerus
    rhumerus rradius
    rradius rwrist
    rwrist rhand rthumb
    rhand rfingers
  end

#!OML:ASF H:\IndianDance\Patient Classification 1\Patient 1\Session 1\dancer.ASF
:FULLY-SPECIFIED
:DEGREES
746
root 5.99289 14.9337 4.83573 -171.358 -1.05051 -178.542
lowerback 5.78415 0.780237 5.80103
upperback -5.33531 1.50065 3.81651
thorax -8.86412 0.324515 0.630867
lowerneck -17.0532 -4.8781 -4.3605
upperneck 32.1167 -7.70184 -1.95721
head 13.8537 -4.98314 -1.52615
rclavicle 3.13552e-015 6.99722e-014
rhumerus -42.8003 70.5219 -94.1241
rradius 94.6069
rwrist -94.5668
rhand -39.8849 -6.97774
rfingers 7.12502
rthumb -12.8568 -36.5618
lclavicle 3.13552e-015 6.99722e-014
lhumerus -54.1206 -58.8419 100.395
lradius 94.0895
lwrist 81.8186
lhand 15.333 17.4799
lfingers 7.12502
lthumb 40.165 42.656
rfemur -34.5466 -28.7213 27.9524
rtibia 53.4872
rfoot -23.6423 -6.49806
rtoes 2.20186
lfemur -43.3342 28.244 -17.8909
ltibia 33.1017
lfoot -26.0222 23.5451
ltoes -6.3546
747
root 5.98109 14.9645 4.82384 -171.337 -0.995356 -178.365
lowerback 5.78015 0.756783 5.70288
upperback -5.3633 1.45011 4.22995
thorax -8.90826 0.302339 1.13642
lowerneck -17.1051 -4.85584 -4.12082
upperneck 32.1735 -7.59948 -2.46246
head 13.8512 -4.98988 -1.7533
rclavicle 8.57104e-015 9.85972e-014
rhumerus -42.9011 71.092 -93.4127
rradius 95.9745
rwrist -94.6857
rhand -39.1062 -7.09317
rfingers 7.12502
rthumb -12.1061 -36.7229
lclavicle 8.57104e-015 9.85972e-014
lhumerus -54.5501 -58.4589 101.121
lradius 94.026
lwrist 81.9071
lhand 15.1586 17.3213
lfingers 7.12502
lthumb 40.0009 42.547
rfemur -34.4426 -28.9743 27.9592
rtibia 53.4134
rfoot -22.938 -5.65042
rtoes 0.724126
lfemur -42.4415 27.4085 -17.2387
ltibia 32.0311
lfoot -26.3179 23.9252
ltoes -5.52843
748
root 5.97068 14.9921 4.8149 -171.316 -0.926822 -178.227
lowerback 5.80284 0.733074 5.55706
upperback -5.37592 1.39658 4.61956
thorax -8.95112 0.28243 1.64408
lowerneck -17.1787 -4.8422 -3.90345
upperneck 32.2087 -7.51326 -2.91208
head 13.8488 -4.99605 -1.95747
rclavicle 1.97076e-015 1.27222e-014
rhumerus -42.8113 71.5639 -92.5728
rradius 97.2904
rwrist -94.8247
rhand -38.2724 -7.22183
rfingers 7.12502
rthumb -11.302 -36.8973
lclavicle 1.97076e-015 1.27222e-014
lhumerus -54.8914 -58.0799 101.735
lradius 93.9647
lwrist 81.9855
lhand 15.0541 17.2186
lfingers 7.12502
lthumb 39.9026 42.474
rfemur -34.4459 -29.2 27.9065
rtibia 53.5212
rfoot -22.1924 -4.7327
rtoes -0.876176
lfemur -41.7028 26.6519 -16.6389
ltibia 31.1258
lfoot -26.5704 24.2111
ltoes -4.80393
749
root 5.96189 15.0155 4.80847 -171.296 -0.85109 -178.146
lowerback 5.84371 0.707822 5.3552
upperback -5.37201 1.33794 4.97302
thorax -8.98605 0.264908 2.14549
lowerneck -17.2732 -4.83833 -3.71604
upperneck 32.2224 -7.44665 -3.29137
head 13.8472 -5.00161 -2.13196
rclavicle 3.98501e-015 -7.95139e-015
rhumerus -42.553 71.9335 -91.6245
rradius 98.56
rwrist -94.9558
rhand -37.4156 -7.3409
rfingers 7.12502
rthumb -10.4756 -37.0599
lclavicle 3.98501e-015 -7.95139e-015
lhumerus -55.1554 -57.7316 102.23
lradius 93.9209
lwrist 82.0584
lhand 15.0192 17.1741
lfingers 7.12502
lthumb 39.8698 42.4393
rfemur -34.5646 -29.4172 27.7779
rtibia 53.82
rfoot -21.4394 -3.77828
rtoes -2.56104
lfemur -41.1032 26.0031 -16.1404
ltibia 30.3645
lfoot -26.7732 24.4247
ltoes -4.19472
750
root 5.95515 15.0343 4.80411 -171.273 -0.770179 -178.136
lowerback 5.89148 0.680993 5.08726
upperback -5.35202 1.27334 5.28147
thorax -9.00657 0.250469 2.63668
lowerneck -17.3841 -4.84626 -3.55912
upperneck 32.2094 -7.40247 -3.59653
head 13.843 -5.00682 -2.27492
rclavicle -3.49116e-015 -2.54444e-014
rhumerus -42.1655 72.2041 -90.6081
rradius 99.7846
rwrist -95.0498
rhand -36.5359 -7.45406
rfingers 7.12502
rthumb -9.62685 -37.2141
lclavicle -3.49116e-015 -2.54444e-014
lhumerus -55.3468 -57.4305 102.6
lradius 93.9033
lwrist 82.133
lhand 15.0453 17.1729
lfingers 7.12502
lthumb 39.8943 42.4308
rfemur -34.7983 -29.6341 27.5636
rtibia 54.2977
rfoot -20.7352 -2.78824
rtoes -4.15224
lfemur -40.6185 25.474 -15.7778
ltibia 29.7206
lfoot -26.9282 24.6053
ltoes -3.70243
751
root 5.95038 15.0479 4.80124 -171.248 -0.685611 -178.206
lowerback 5.93623 0.654089 4.7562
upperback -5.31792 1.20505 5.53754
thorax -9.00856 0.240154 3.10749
lowerneck -17.5043 -4.86688 -3.43098
upperneck 32.167 -7.38161 -3.83041
head 13.8329 -5.01217 -2.38721
rclavicle -1.05604e-015 2.8625e-014
rhumerus -41.6666 72.393 -89.5119
rradius 100.989
rwrist -95.0851
rhand -35.6326 -7.53562
rfingers 7.12502
rthumb -8.75528 -37.334
lclavicle -1.05604e-015 2.8625e-014
lhumerus -55.4791 -57.1945 102.857
lradius 93.916
lwrist 82.2133
lhand 15.1053 17.188
lfingers 7.12502
lthumb 39.9507 42.4289
rfemur -35.132 -29.8603 27.2639
rtibia 54.9155
rfoot -20.123 -1.83691
rtoes -5.67273
lfemur -40.2217 25.0619 -15.5712
ltibia 29.1711
lfoot -27.0486 24.7902
ltoes -3.29616
752
root 5.94773 15.0566 4.79952 -171.22 -0.605444 -178.36
lowerback 5.97608 0.623208 4.36484
upperback -5.27464 1.12865 5.73946
thorax -8.99598 0.231502 3.55502
lowerneck -17.7111 -7.46018 -2.50939
upperneck 32.0062 -6.37707 -5.03062
head 13.7275 -3.03377 -2.46224
rclavicle 4.82053e-015 -2.8625e-014
rhumerus -41.1037 72.5219 -88.3867
rradius 102.172
rwrist -95.0415
rhand -34.7228 -7.58092
rfingers 7.12502
rthumb -7.87724 -37.4142
lclavicle 4.82053e-015 -2.8625e-014
lhumerus -55.5725 -57.0287 103.016
lradius 93.9705
lwrist 82.3104
lhand 15.1376 17.2058
lfingers 7.12502
lthumb 39.9812 42.4375
rfemur -35.5337 -30.105 26.8868
rtibia 55.6077
rfoot -19.6482 -0.993361
rtoes -7.03966
lfemur -39.892 24.7569 -15.5284
ltibia 28.6996
lfoot -27.154 24.9949
ltoes -2.92063
753
root 5.94743 15.0608 4.79879 -171.188 -0.525842 -178.589
lowerback 6.01044 0.593356 3.91814
upperback -5.22869 1.05145 5.88981
thorax -8.97568 0.227358 3.97847
lowerneck -17.8183 -7.46408 -2.43141
upperneck 31.8983 -6.4025 -5.129
head 13.6947 -3.0612 -2.52034
rclavicle -6.95746e-016 3.97569e-014
rhumerus -40.524 72.6017 -87.2784
rradius 103.326
rwrist -94.9167
rhand -33.8592 -7.53953
rfingers 7.12502
rthumb -7.04365 -37.4023
lclavicle -6.95746e-016 3.97569e-014
lhumerus -55.6458 -56.9446 103.1
lradius 94.0709
lwrist 82.431
lhand 15.1147 17.1939
lfingers 7.12502
lthumb 39.9596 42.4321
rfemur -35.9645 -30.3526 26.4558
rtibia 56.292
rfoot -19.3341 -0.327793
rtoes -8.10629
lfemur -39.6246 24.5554 -15.6379
ltibia 28.3015
lfoot -27.2496 25.2231
ltoes -2.55245
754
root 5.94963 15.0611 4.79911 -171.15 -0.447881 -178.873
lowerback 6.04539 0.56517 3.4355
upperback -5.18887 0.976159 5.99431
thorax -8.96092 0.227215 4.37325
lowerneck -17.9068 -7.46613 -2.35722
upperneck 31.7718 -6.43877 -5.19491
head 13.6511 -3.09018 -2.56518
rclavicle -2.38542e-015 -9.38264e-014
rhumerus -39.9631 72.6457 -86.2333
rradius 104.44
rwrist -94.7301
rhand -33.1117 -7.34199
rfingers 7.12502
rthumb -6.3221 -37.2276
lclavicle -2.38542e-015 -9.38264e-014
lhumerus -55.7218 -56.9411 103.13
lradius 94.221
lwrist 82.5724
lhand 15.0499 17.159
lfingers 7.12502
lthumb 39.8986 42.4155
rfemur -36.3838 -30.5873 26.0137
rtibia 56.8816
rfoot -19.1913 0.103168
rtoes -8.87899
lfemur -39.4267 24.4507 -15.8707
ltibia 27.9781
lfoot -27.3196 25.4732
ltoes -2.25303
755
root 5.95432 15.0578 4.8006 -171.108 -0.371694 -179.182
lowerback 6.09276 0.537573 2.94269
upperback -5.16079 0.90341 6.06541
thorax -8.96492 0.229271 4.7388
lowerneck -17.9738 -7.46145 -2.28413
upperneck 31.6359 -6.47289 -5.24031
head 13.5999 -3.11546 -2.5999
rclavicle 4.42296e-015 -4.45278e-014
rhumerus -39.428 72.6677 -85.2654
rradius 105.503
rwrist -94.5146
rhand -32.3339 -7.15677
rfingers 7.12502
rthumb -5.57111 -37.0635
lclavicle 4.42296e-015 -4.45278e-014
lhumerus -55.8101 -56.9944 103.123
lradius 94.4069
lwrist 82.7192
lhand 14.9335 17.0874
lfingers 7.12502
lthumb 39.7891 42.3767
rfemur -36.7484 -30.7948 25.6113
rtibia 57.3005
rfoot -19.2118 0.298809
rtoes -9.2365
lfemur -39.3009 24.4314 -16.1801
ltibia 27.734
lfoot -27.3727 25.7109
ltoes -2.02427
